<svg width="152" height="42" viewBox="0 0 152 42" fill="none" xmlns="http://www.w3.org/2000/svg">
<g clip-path="url(#clip0_141_147)">
<path d="M38.9778 15.6868C38.9551 15.6179 38.9324 15.549 38.9081 15.4809C38.8837 15.4128 38.8667 15.3552 38.8448 15.2936C37.4569 11.4058 34.9014 8.04189 31.5281 5.66224C28.1549 3.28259 24.1286 2.00349 20.0004 2C18.7767 2.00148 17.5556 2.11462 16.3525 2.33804C8.04653 3.87014 1.53699 10.5255 0.238328 18.9139C0.0799557 19.935 0.000281996 20.9667 1.01663e-06 22C-0.000683952 24.1457 0.344767 26.2775 1.02304 28.3132C1.04574 28.3821 1.06925 28.451 1.09276 28.5191C1.11627 28.5872 1.1341 28.6448 1.15599 28.7064C2.54391 32.5942 5.09939 35.9581 8.47268 38.3378C11.846 40.7174 15.8722 41.9965 20.0004 42C21.2241 41.9985 22.4452 41.8854 23.6483 41.662C31.9543 40.1299 38.4638 33.4745 39.7625 25.0861C39.9206 24.065 40 23.0333 40 22C40.0009 19.8543 39.6558 17.7225 38.9778 15.6868ZM15.8101 33.8815C15.5232 34.1676 13.1763 33.0854 11.0613 30.9705C8.94635 28.8555 7.85441 26.5193 8.15111 26.2226C8.4478 25.9259 10.7849 27.0178 12.8999 29.1328C15.0149 31.2477 16.0963 33.5921 15.8101 33.8815ZM22.4502 30.001C22.0611 30.3909 18.8679 28.9188 15.9909 26.0418C13.1139 23.1649 11.628 19.9856 12.0317 19.5827C12.4354 19.1798 15.614 20.6649 18.491 23.5418C21.368 26.4188 22.8377 29.6119 22.4502 30.001ZM28.0007 24.4514C27.6108 24.8405 24.4185 23.3692 21.5415 20.4914C18.6644 17.6137 17.1785 14.4351 17.5814 14.0323C17.9843 13.6294 21.1645 15.1145 24.0415 17.9914C26.9185 20.8684 28.3907 24.0614 28.0007 24.4514ZM31.8919 17.8042C31.6049 18.0903 29.258 17.0081 27.1431 14.8932C25.0281 12.7782 23.9361 10.442 24.2328 10.1453C24.5295 9.84857 26.8666 10.9405 28.9816 13.0554C31.0966 15.1704 32.1772 17.5139 31.8911 17.8009L31.8919 17.8042Z" fill="black"/>
<path d="M56.08 31V15.128H59.696L60.048 17.272C60.56 16.504 61.232 15.896 62.064 15.448C62.9174 14.9786 63.8987 14.744 65.008 14.744C67.4614 14.744 69.2 15.6933 70.224 17.592C70.8 16.7173 71.568 16.024 72.528 15.512C73.5094 15 74.576 14.744 75.728 14.744C77.7974 14.744 79.3867 15.3626 80.496 16.6C81.6054 17.8373 82.16 19.6506 82.16 22.04V31H78.064V22.424C78.064 21.0586 77.7974 20.0133 77.264 19.288C76.752 18.5626 75.952 18.2 74.864 18.2C73.7547 18.2 72.8587 18.6053 72.176 19.416C71.5147 20.2266 71.184 21.3573 71.184 22.808V31H67.088V22.424C67.088 21.0586 66.8214 20.0133 66.288 19.288C65.7547 18.5626 64.9334 18.2 63.824 18.2C62.736 18.2 61.8507 18.6053 61.168 19.416C60.5067 20.2266 60.176 21.3573 60.176 22.808V31H56.08Z" fill="black"/>
<path d="M92.0648 31.384C90.5288 31.384 89.1421 31.032 87.9048 30.328C86.6888 29.624 85.7181 28.6533 84.9928 27.416C84.2888 26.1573 83.9368 24.7066 83.9368 23.064C83.9368 21.4213 84.2994 19.9813 85.0248 18.744C85.7501 17.4853 86.7208 16.504 87.9368 15.8C89.1741 15.096 90.5608 14.744 92.0968 14.744C93.6114 14.744 94.9768 15.096 96.1928 15.8C97.4301 16.504 98.4008 17.4853 99.1048 18.744C99.8301 19.9813 100.193 21.4213 100.193 23.064C100.193 24.7066 99.8301 26.1573 99.1048 27.416C98.4008 28.6533 97.4301 29.624 96.1928 30.328C94.9554 31.032 93.5794 31.384 92.0648 31.384ZM92.0648 27.832C93.1314 27.832 94.0594 27.4373 94.8488 26.648C95.6381 25.8373 96.0328 24.6426 96.0328 23.064C96.0328 21.4853 95.6381 20.3013 94.8488 19.512C94.0594 18.7013 93.1421 18.296 92.0968 18.296C91.0088 18.296 90.0701 18.7013 89.2808 19.512C88.5128 20.3013 88.1288 21.4853 88.1288 23.064C88.1288 24.6426 88.5128 25.8373 89.2808 26.648C90.0701 27.4373 90.9981 27.832 92.0648 27.832Z" fill="black"/>
<path d="M109.871 31.384C108.335 31.384 106.948 31.032 105.711 30.328C104.495 29.624 103.524 28.6533 102.799 27.416C102.095 26.1573 101.743 24.7066 101.743 23.064C101.743 21.4213 102.106 19.9813 102.831 18.744C103.556 17.4853 104.527 16.504 105.743 15.8C106.98 15.096 108.367 14.744 109.903 14.744C111.418 14.744 112.783 15.096 113.999 15.8C115.236 16.504 116.207 17.4853 116.911 18.744C117.636 19.9813 117.999 21.4213 117.999 23.064C117.999 24.7066 117.636 26.1573 116.911 27.416C116.207 28.6533 115.236 29.624 113.999 30.328C112.762 31.032 111.386 31.384 109.871 31.384ZM109.871 27.832C110.938 27.832 111.866 27.4373 112.655 26.648C113.444 25.8373 113.839 24.6426 113.839 23.064C113.839 21.4853 113.444 20.3013 112.655 19.512C111.866 18.7013 110.948 18.296 109.903 18.296C108.815 18.296 107.876 18.7013 107.087 19.512C106.319 20.3013 105.935 21.4853 105.935 23.064C105.935 24.6426 106.319 25.8373 107.087 26.648C107.876 27.4373 108.804 27.832 109.871 27.832Z" fill="black"/>
<path d="M120.061 31V15.128H123.677L123.997 17.816C124.488 16.8773 125.192 16.1306 126.109 15.576C127.048 15.0213 128.147 14.744 129.405 14.744C131.368 14.744 132.893 15.3626 133.981 16.6C135.069 17.8373 135.613 19.6506 135.613 22.04V31H131.517V22.424C131.517 21.0586 131.24 20.0133 130.685 19.288C130.131 18.5626 129.267 18.2 128.093 18.2C126.941 18.2 125.992 18.6053 125.245 19.416C124.52 20.2266 124.157 21.3573 124.157 22.808V31H120.061Z" fill="black"/>
<path d="M137.93 31V7.95996H142.026V31H137.93Z" fill="black"/>
<path d="M146.819 12.664C146.073 12.664 145.454 12.44 144.963 11.992C144.494 11.544 144.259 10.9786 144.259 10.296C144.259 9.61329 144.494 9.05863 144.963 8.63196C145.454 8.18396 146.073 7.95996 146.819 7.95996C147.566 7.95996 148.174 8.18396 148.643 8.63196C149.134 9.05863 149.379 9.61329 149.379 10.296C149.379 10.9786 149.134 11.544 148.643 11.992C148.174 12.44 147.566 12.664 146.819 12.664ZM144.771 31V15.128H148.867V31H144.771Z" fill="black"/>
</g>
<defs>
<clipPath id="clip0_141_147">
<rect width="152" height="42" fill="white"/>
</clipPath>
</defs>
</svg>
